# AST/ASF file generated using VICON BodyLanguage
# -----------------------------------------------
:version 1.10
:name VICON
:units
  mass 1.0
  length 0.45
  angle deg
:documentation
   .ast/.asf automatically generated from VICON data using
   VICON BodyBuilder and BodyLanguage model FoxedUp or BRILLIANT.MOD
:root
   order TX TY TZ RX RY RZ
   axis XYZ
   position 0 0 0  
   orientation 0 -0 0 
:bonedata
  begin
     id 1 
     name lhipjoint
     direction 0.432694 -0.693742 0.575759 
     length 2.19277 
     axis 0 -0 0  XYZ
  end
  begin
     id 2 
     name lfemur
     direction 0.34202 -0.939693 0  
     length 6.69022  
     axis 0 -0 20  XYZ
    dof rx ry rz
    limits (-160.0 20.0)
           (-70.0 70.0)
           (-60.0 70.0)
  end
  begin
     id 3 
     name ltibia
     direction 0.34202 -0.939693 0   
     length 6.50337   
     axis 0 -0 20   XYZ
    dof rx
    limits (-10.0 170.0)
  end
  begin
     id 4 
     name lfoot
     direction 0.158999 -0.435969 0.885805   
     length 2.70564   
     axis -90 -1.13533e-015 20   XYZ
    dof rx rz
    limits (-45.0 90.0)
           (-70.0 20.0)
  end
  begin
     id 5 
     name ltoes
     direction -0.00592919 0.00964381 0.999936   
     length 1.29929   
     axis -90 -1.13533e-015 20   XYZ
    dof rx
    limits (-90.0 20.0)
  end
  begin
     id 6 
     name rhipjoint
     direction -0.414359 -0.700339 0.581234   
     length 2.17212  
     axis 0 -0 0  XYZ 
  end
  begin
     id 7 
     name rfemur
     direction -0.34202 -0.939693 0   
     length 7.17659   
     axis 0 -0 -20   XYZ
    dof rx ry rz
    limits (-160.0 20.0)
           (-70.0 70.0)
           (-70.0 60.0)
  end
  begin
     id 8 
     name rtibia
     direction -0.34202 -0.939693 0   
     length 6.36669   
     axis 0 -0 -20   XYZ
    dof rx
    limits (-10.0 170.0)
 end
 begin
     id 9 
     name rfoot
     direction -0.137064 -0.37658 0.916188   
     length 2.22351  
     axis -90 1.13533e-015 -20   XYZ
    dof rx rz
    limits (-45.0 90.0)
           (-20.0 70.0)
  end
  begin
     id 10 
     name rtoes
     direction -0.000784077 -0.00289101 0.999996   
     length 1.09522   
     axis -90 1.13533e-015 -20   XYZ
    dof rx
    limits (-90.0 20.0)
  end
  begin
     id 11 
     name lowerback
     direction -0.0176242 0.984912 -0.172157   
     length 1.65301   
     axis 0 -0 0   XYZ
    dof rx ry rz
    limits (-20.0 45.0)
           (-30.0 30.0)
           (-30.0 30.0)
  end
  begin
     id 12 
     name upperback
     direction -0.00218128 0.998776 -0.0494072   
     length 1.67776   
     axis 0 -0 0   XYZ
    dof rx ry rz
    limits (-20.0 45.0)
           (-30.0 30.0)
           (-30.0 30.0)
  end
  begin
     id 13 
     name thorax
     direction 0.00544186 0.999658 0.0255711   
     length 1.72293   
     axis 0 -0 0   XYZ
    dof rx ry rz
    limits (-20.0 45.0)
           (-30.0 30.0)
           (-30.0 30.0)
  end
  begin
     id 14 
     name lowerneck
     direction -0.105325 0.983841 0.144785   
     length 2.14226   
     axis 0 -0 0   XYZ
    dof rx ry rz
    limits (-20.0 45.0)
           (-30.0 30.0)
           (-30.0 30.0)
  end
  begin
     id 15 
     name upperneck
     direction 0.0547957 0.988053 -0.144041   
     length 2.17508   
     axis 0 -0 0   XYZ
    dof rx ry rz
    limits (-20.0 45.0)
           (-30.0 30.0)
           (-30.0 30.0)
  end
  begin
     id 16
     name head
     direction 0.0247488 0.997534 -0.0656813  
     length 2.20048  
     axis 0 -0 0   XYZ
    dof rx ry rz
    limits (-20.0 45.0)
           (-30.0 30.0)
           (-30.0 30.0)
  end
  begin
     id 17 
     name lclavicle
     direction 0.820559 0.567247 -0.0701026  
     length 4.09615  
     axis 0 -0 0   XYZ
    dof ry rz
    limits (-20.0 10.0)
           (0.0 20.0)
  end
  begin
     id 18 
     name lhumerus
     direction 0.999977 -0.0067566 -9.96392e-005   
     length 4.59333   
     axis -180 -30 -90   XYZ
    dof rx ry rz
    limits (-60.0 90.0)
           (-90.0 90.0)
           (-90.0 90.0)
  end
  begin
     id 19
     name lradius
     direction 1 -4.48982e-011 -2.53425e-027   
     length 2.81151   
     axis -180 -30 -90   XYZ
    dof rx
    limits (-10.0 170.0)
  end
  begin
     id 20
     name lwrist
     direction 1 -4.48939e-011 -7.39254e-028   
     length 1.40576   
     axis 2.56395e-016 90 90   XYZ
    dof ry
    limits (-180.0 0.0)
 end
  begin
     id 21 
     name lhand
     direction 1 -4.48939e-011 -1.47851e-027   
     length 0.895651   
     axis 9.43423e-016 90 90   XYZ
    dof rx rz
    limits (-90.0 90.0)
           (-45.0 45.0)
  end
  begin
     id 22 
     name lfingers
     direction 1 -4.48978e-011 -2.95702e-027   
     length 0.722097   
     axis 1.88685e-015 90 90   XYZ
    dof rx
    limits (0.0 90.0)
  end
  begin
     id 23
     name lthumb
     direction 0.707107 -6.34931e-011 0.707107   
     length 1.03679   
     axis -90 45 -9.86935e-015   XYZ
    dof rx rz
    limits (-45.0 45.0)
           (-45.0 45.0)
  end
  begin
     id 24 
     name rclavicle
     direction -0.831414 0.553102 -0.0531864   
     length 4.24872  
     axis 0 -0 0   XYZ 
    dof ry rz
    limits (-10.0 20.0)
           (-20.0 0.0)
  end
  begin
     id 25 
     name rhumerus
     direction -0.999916 -0.000939607 0.0129331  
     length 4.74834   
     axis -180 30 90   XYZ
    dof rx ry rz
    limits (-90.0 60.0)
           (-90.0 90.0)
           (-90.0 90.0)
  end
  begin
     id 26 
     name rradius
     direction -1 -4.48956e-011 -1.31752e-027   
     length 2.79907   
     axis -180 30 90   XYZ
    dof rx
    limits (-10.0 170.0)
  end
  begin
     id 27 
     name rwrist
     direction -1 -4.4897e-011 -7.39254e-028   
     length 1.39954   
     axis 2.56395e-016 -90 -90   XYZ
    dof ry
    limits (-180.0 0.0)
  end
  begin
     id 28
     name rhand
     direction -0.999997 -0.00250697 0.000800838   
     length 0.953304   
     axis 9.43423e-016 -90 -90   XYZ
    dof rx rz
    limits (-90.0 90.0)
           (-45.0 45.0)
  end
  begin
     id 29
     name rfingers
     direction -1 -4.48954e-011 -2.95702e-027   
     length 0.763342   
     axis 1.88685e-015 -90 -90   XYZ
    dof rx
    limits (0.0 90.0)
  end
  begin
     id 30
     name rthumb
     direction -0.709701 -0.00217037 0.7045   
     length 1.10115   
     axis -90 -45 9.86935e-015   XYZ
    dof rx rz
    limits (-45.0 45.0)
           (-45.0 45.0)
  end
:hierarchy
  begin
    root lhipjoint rhipjoint lowerback
    lhipjoint lfemur
    lfemur ltibia
    ltibia lfoot
    lfoot ltoes
    rhipjoint rfemur
    rfemur rtibia
    rtibia rfoot
    rfoot rtoes
    lowerback upperback
    upperback thorax
    thorax lowerneck lclavicle rclavicle
    lowerneck upperneck
    upperneck head
    lclavicle lhumerus
    lhumerus lradius
    lradius lwrist
    lwrist lhand lthumb
    lhand lfingers
    rclavicle rhumerus
    rhumerus rradius
    rradius rwrist
    rwrist rhand rthumb
    rhand rfingers
  end

#!OML:ASF G:\ViconDB\ViconDB\414\test\team2\shane.ASF
:FULLY-SPECIFIED
:DEGREES
1
root -2.53306 16.5559 -43.4989 6.15063 7.39865 -10.0731
lowerback 13.7365 -2.4777 0.360361
upperback 6.06109 -3.13771 2.32535
thorax -1.19866 -1.58273 2.67233
lowerneck -19.3048 -0.639483 -7.10776
upperneck 20.7679 0.580492 2.81368
head 9.75406 0.0289491 2.24425
rclavicle -3.26007e-014 1.98785e-014
rhumerus -42.717 12.8681 -93.1315
rradius 47.1388
rwrist 27.7047
rhand -34.2093 -16.9875
rfingers 7.12502
rthumb -7.38163 -46.8388
lclavicle -3.26007e-014 1.98785e-014
lhumerus -33.9754 -36.3198 103.605
lradius 28.127
lwrist -14.8357
lhand -40.8114 3.91915
lfingers 7.12502
lthumb -13.7499 33.4448
rfemur -24.2291 -19.1549 24.5397
rtibia 43.1882
rfoot -25.6547 1.50045
rtoes -10.1548
lfemur -9.14579 15.6558 -2.76255
ltibia 36.9514
lfoot -38.9153 -10.1036
ltoes -16.3903
2
root -2.53697 16.5515 -43.4807 6.0891 8.10138 -9.97427
lowerback 13.7969 -2.73589 0.167767
upperback 6.15803 -3.49748 2.4056
thorax -1.09591 -1.76728 2.91521
lowerneck -19.2546 -0.709391 -7.35428
upperneck 20.9279 0.563014 2.77967
head 9.80348 -0.00661635 2.27278
rclavicle 5.20816e-014 -2.62396e-014
rhumerus -43.0964 12.6016 -92.9827
rradius 46.5624
rwrist 30.7572
rhand -34.771 -17.9078
rfingers 7.12502
rthumb -7.92377 -47.7393
lclavicle 5.20816e-014 -2.62396e-014
lhumerus -33.1869 -37.3553 103.746
lradius 27.6341
lwrist -15.4086
lhand -41.0036 4.14488
lfingers 7.12502
lthumb -13.9351 33.6579
rfemur -24.0417 -19.9303 24.4138
rtibia 43.7432
rfoot -26.0553 0.399942
rtoes -9.87602
lfemur -9.22211 15.5957 -2.73947
ltibia 36.9451
lfoot -38.9958 -10.6897
ltoes -16.2359
3
root -2.53103 16.5453 -43.4728 6.14663 7.92481 -10.026
lowerback 13.9738 -2.69987 0.0568192
upperback 6.18138 -3.46039 2.43922
thorax -1.15852 -1.751 3.01666
lowerneck -19.1745 -0.787129 -7.39418
upperneck 21.0131 0.513958 2.56423
head 9.82425 -0.0601627 2.19736
rclavicle 2.34566e-014 1.35174e-014
rhumerus -43.2485 12.1663 -92.8451
rradius 45.9755
rwrist 31.5064
rhand -34.7733 -17.654
rfingers 7.12502
rthumb -7.92599 -47.4854
lclavicle 2.34566e-014 1.35174e-014
lhumerus -32.6288 -38.2354 103.67
lradius 27.2778
lwrist -16.8471
lhand -41.0697 3.24163
lfingers 7.12502
lthumb -13.9988 32.7503
rfemur -24.0518 -19.7704 24.3943
rtibia 44.2773
rfoot -26.1876 -0.817449
rtoes -10.1517
lfemur -9.25478 15.6672 -2.78824
ltibia 37.043
lfoot -39.0535 -10.3618
ltoes -16.4791
4
root -2.53777 16.5485 -43.4423 6.24728 8.4668 -9.98687
lowerback 13.6689 -2.84489 0.028194
upperback 6.33897 -3.66057 2.48685
thorax -0.814604 -1.85605 3.08731
lowerneck -19.1393 -0.980517 -7.6208
upperneck 21.0496 0.321551 2.52476
head 9.84307 -0.17277 2.19475
rclavicle -2.78299e-014 1.27222e-014
rhumerus -43.848 12.2292 -92.7141
rradius 45.7804
rwrist 33.2044
rhand -34.6853 -17.0985
rfingers 7.12502
rthumb -7.84103 -46.9331
lclavicle -2.78299e-014 1.27222e-014
lhumerus -32.0242 -39.6824 103.81
lradius 27.1441
lwrist -17.1469
lhand -41.6787 4.06422
lfingers 7.12502
lthumb -14.5856 33.5314
rfemur -23.9279 -20.2155 24.3621
rtibia 44.8068
rfoot -26.5611 -2.21525
rtoes -10.3042
lfemur -9.57883 16.3273 -2.77514
ltibia 37.1487
lfoot -39.4895 -10.619
ltoes -16.749
5
root -2.54213 16.539 -43.43 6.28727 8.42435 -9.98845
lowerback 13.8101 -2.82961 -0.158338
upperback 6.43162 -3.65986 2.59135
thorax -0.772844 -1.86242 3.30631
lowerneck -19.2506 -1.17435 -8.12002
upperneck 21.2129 0.203876 2.57184
head 9.93088 -0.265587 2.2804
rclavicle 7.95139e-016 2.54444e-014
rhumerus -44.3684 12.5 -92.7529
rradius 45.98
rwrist 32.147
rhand -34.4511 -17.2024
rfingers 7.12502
rthumb -7.615 -47.0453
lclavicle 7.95139e-016 2.54444e-014
lhumerus -31.202 -40.6646 103.856
lradius 26.911
lwrist -17.5463
lhand -42.1868 3.63051
lfingers 7.12502
lthumb -15.0752 33.0616
rfemur -23.8033 -19.9767 24.2616
rtibia 45.3498
rfoot -26.7566 -3.3871
rtoes -9.60403
lfemur -9.49273 15.9084 -2.75434
ltibia 37.2674
lfoot -39.3826 -10.7463
ltoes -16.1368
6
root -2.54603 16.5341 -43.4071 6.27355 8.76448 -9.98904
lowerback 13.896 -2.95446 -0.112132
upperback 6.55093 -3.81685 2.60957
thorax -0.685426 -1.94147 3.32187
lowerneck -19.2111 -1.32908 -8.37769
upperneck 21.2163 0.0660837 2.56397
head 9.93495 -0.351167 2.30079
rclavicle -5.32743e-014 4.77083e-015
rhumerus -44.7324 12.3947 -92.6326
rradius 45.4308
rwrist 32.0967
rhand -34.4151 -16.771
rfingers 7.12502
rthumb -7.5802 -46.6152
lclavicle -5.32743e-014 4.77083e-015
lhumerus -30.4047 -41.8881 103.759
lradius 26.9371
lwrist -17.8209
lhand -42.252 4.0923
lfingers 7.12502
lthumb -15.1379 33.5187
rfemur -23.577 -20.2073 24.2022
rtibia 45.8648
rfoot -27.0468 -4.67707
rtoes -9.75941
lfemur -9.7014 16.2738 -2.76396
ltibia 37.4255
lfoot -39.9098 -10.3936
ltoes -16.5369
7
root -2.5578 16.5189 -43.3874 6.35079 9.36723 -10.2317
lowerback 13.8863 -3.13926 0.152948
upperback 6.62883 -4.02447 2.71772
thorax -0.596023 -2.04199 3.31119
lowerneck -19.1647 -1.51257 -8.51413
upperneck 21.1857 -0.131272 2.48305
head 9.9295 -0.462025 2.26648
rclavicle 3.57812e-015 4.77083e-015
rhumerus -44.9358 11.6362 -92.0346
rradius 44.3325
rwrist 34.0544
rhand -34.6128 -16.2883
rfingers 7.12502
rthumb -7.77107 -46.1255
lclavicle 3.57812e-015 4.77083e-015
lhumerus -29.9916 -43.7593 104.146
lradius 27.469
lwrist -15.6408
lhand -42.1335 4.67956
lfingers 7.12502
lthumb -15.0238 34.1145
rfemur -23.496 -20.4968 24.5582
rtibia 46.4278
rfoot -27.2222 -6.15279
rtoes -9.65818
lfemur -9.92185 15.65 -2.38151
ltibia 37.5066
lfoot -39.6789 -10.7486
ltoes -16.1723
